<svg xmlns="http://www.w3.org/2000/svg" xmlns:xlink="http://www.w3.org/1999/xlink" contentStyleType="text/css" data-diagram-type="CLASS" height="1041px" preserveAspectRatio="none" style="width:1445px;height:1041px;background:#FFFFFF;" version="1.1" viewBox="0 0 1445 1041" width="1445px" zoomAndPan="magnify"><?plantuml 1.2026.3?><defs/><g><!--cluster github_com_codemityio_go_pkg_json--><g class="cluster" data-qualified-name="github_com_codemityio_go_pkg_json" data-source-line="7" id="ent0002"><path d="M8.5,6 L288.0098,6 A3.75,3.75 0 0 1 290.5098,8.5 L297.5098,28.2969 L1247.5,28.2969 A2.5,2.5 0 0 1 1250,30.7969 L1250,1024.39 A2.5,2.5 0 0 1 1247.5,1026.89 L8.5,1026.89 A2.5,2.5 0 0 1 6,1024.39 L6,8.5 A2.5,2.5 0 0 1 8.5,6" fill="#FAFAFA" style="stroke:#000000;stroke-width:1.5;"/><line style="stroke:#000000;stroke-width:1.5;" x1="6" x2="297.5098" y1="28.2969" y2="28.2969"/><text fill="#000000" font-family="sans-serif" font-size="14" font-weight="700" lengthAdjust="spacing" textLength="278.5098" x="10" y="20.9951">github.com/codemityio/go/pkg/json</text></g><!--cluster encoding_json--><g class="cluster" data-qualified-name="encoding_json" data-source-line="26" id="ent0013"><path d="M1276.5,6 L1387.5176,6 A3.75,3.75 0 0 1 1390.0176,8.5 L1397.0176,28.2969 L1427.5,28.2969 A2.5,2.5 0 0 1 1430,30.7969 L1430,102.5 A2.5,2.5 0 0 1 1427.5,105 L1276.5,105 A2.5,2.5 0 0 1 1274,102.5 L1274,8.5 A2.5,2.5 0 0 1 1276.5,6" fill="#FAFAFA" style="stroke:#000000;stroke-width:1.5;"/><line style="stroke:#000000;stroke-width:1.5;" x1="1274" x2="1397.0176" y1="28.2969" y2="28.2969"/><text fill="#000000" font-family="sans-serif" font-size="14" font-weight="700" lengthAdjust="spacing" textLength="110.0176" x="1278" y="20.9951">encoding/json</text></g><!--class github_com_codemityio_go_pkg_json_RawMessageSequenceMap--><g class="entity" data-qualified-name="github_com_codemityio_go_pkg_json.github_com_codemityio_go_pkg_json_RawMessageSequenceMap" data-source-line="8" id="ent0003"><rect fill="#F1F1F1" height="96.8906" rx="2.5" ry="2.5" style="stroke:#181818;stroke-width:0.5;" width="283.4414" x="950.28" y="393"/><ellipse cx="982.8304" cy="409" fill="#B5558D" rx="11" ry="11" style="stroke:#181818;stroke-width:1;"/><path d="M982.3148,409.5625 Q980.4554,408.8594 979.7992,408.0938 Q979.1586,407.3125 979.1586,406 Q979.1586,404.3125 980.2367,403.3438 Q981.3148,402.375 983.1898,402.375 Q984.0492,402.375 984.8929,402.5781 Q985.7523,402.7656 986.5961,403.1563 L986.5961,405.5469 Q985.8148,404.9844 984.9867,404.7031 Q984.1742,404.4063 983.3773,404.4063 Q982.5023,404.4063 982.0179,404.7656 Q981.5492,405.125 981.5492,405.7813 Q981.5492,406.2969 981.8929,406.6406 Q982.2367,406.9688 983.3304,407.375 L984.3929,407.7813 Q985.8773,408.3281 986.5804,409.2344 Q987.2992,410.1406 987.2992,411.5156 Q987.2992,413.3906 986.1898,414.3125 Q985.0804,415.2344 982.8304,415.2344 Q981.9086,415.2344 980.9867,415.0156 Q980.0648,414.7969 979.2054,414.375 L979.2054,411.8438 Q980.1742,412.5313 981.0961,412.875 Q982.0179,413.2188 982.9086,413.2188 Q983.8148,413.2188 984.3148,412.8125 Q984.8148,412.3906 984.8148,411.6563 Q984.8148,411.0938 984.4711,410.6875 Q984.1429,410.2656 983.5179,410.0156 L982.3148,409.5625 Z " fill="#000000"/><text fill="#1C1C1C" font-family="sans-serif" font-size="14" font-weight="700" lengthAdjust="spacing" textLength="212.4404" x="1000.7305" y="413.8467">RawMessageSequenceMap</text><line style="stroke:#181818;stroke-width:0.5;" x1="951.28" x2="1232.7214" y1="425" y2="425"/><g data-visibility-modifier="PRIVATE_FIELD"><rect fill="none" height="6" style="stroke:#C82930;stroke-width:1;" width="6" x="958.28" y="435.6484"/></g><text fill="#000000" font-family="sans-serif" font-size="14" lengthAdjust="spacing" textLength="31.5342" x="970.28" y="441.9951">data</text><text fill="#1F38B5" font-family="sans-serif" font-size="14" lengthAdjust="spacing" textLength="217.3281" x="1006.2644" y="441.9951">map[string][]json.RawMessage</text><g data-visibility-modifier="PRIVATE_FIELD"><rect fill="none" height="6" style="stroke:#C82930;stroke-width:1;" width="6" x="958.28" y="451.9453"/></g><text fill="#000000" font-family="sans-serif" font-size="14" lengthAdjust="spacing" textLength="43.9414" x="970.28" y="458.292">cursor</text><text fill="#1F38B5" font-family="sans-serif" font-size="14" lengthAdjust="spacing" textLength="100.4678" x="1018.6716" y="458.292">map[string]int</text><line style="stroke:#181818;stroke-width:0.5;" x1="951.28" x2="1232.7214" y1="465.5938" y2="465.5938"/><g data-visibility-modifier="PUBLIC_METHOD"><ellipse cx="961.28" cy="479.2422" fill="#84BE84" rx="3" ry="3" style="stroke:#038048;stroke-width:1;"/></g><text fill="#000000" font-family="sans-serif" font-size="14" lengthAdjust="spacing" textLength="32.8604" x="970.28" y="482.5889">Next</text><text fill="#1F38B5" font-family="sans-serif" font-size="14" lengthAdjust="spacing" textLength="220.1309" x="1007.5905" y="482.5889">(key string) (json.RawMessage)</text></g><!--class github_com_codemityio_go_pkg_json_Serialiser--><g class="entity" data-qualified-name="github_com_codemityio_go_pkg_json.github_com_codemityio_go_pkg_json_Serialiser" data-source-line="13" id="ent0004"><rect fill="#F1F1F1" height="64.2969" rx="2.5" ry="2.5" style="stroke:#181818;stroke-width:0.5;" width="380.6279" x="21.69" y="409.3"/><ellipse cx="170.2247" cy="425.3" fill="#B5558D" rx="11" ry="11" style="stroke:#181818;stroke-width:1;"/><path d="M169.709,425.8625 Q167.8497,425.1594 167.1934,424.3938 Q166.5528,423.6125 166.5528,422.3 Q166.5528,420.6125 167.6309,419.6438 Q168.709,418.675 170.584,418.675 Q171.4434,418.675 172.2872,418.8781 Q173.1465,419.0656 173.9903,419.4563 L173.9903,421.8469 Q173.209,421.2844 172.3809,421.0031 Q171.5684,420.7063 170.7715,420.7063 Q169.8965,420.7063 169.4122,421.0656 Q168.9434,421.425 168.9434,422.0813 Q168.9434,422.5969 169.2872,422.9406 Q169.6309,423.2688 170.7247,423.675 L171.7872,424.0813 Q173.2715,424.6281 173.9747,425.5344 Q174.6934,426.4406 174.6934,427.8156 Q174.6934,429.6906 173.584,430.6125 Q172.4747,431.5344 170.2247,431.5344 Q169.3028,431.5344 168.3809,431.3156 Q167.459,431.0969 166.5997,430.675 L166.5997,428.1438 Q167.5684,428.8313 168.4903,429.175 Q169.4122,429.5188 170.3028,429.5188 Q171.209,429.5188 171.709,429.1125 Q172.209,428.6906 172.209,427.9563 Q172.209,427.3938 171.8653,426.9875 Q171.5372,426.5656 170.9122,426.3156 L169.709,425.8625 Z " fill="#000000"/><text fill="#1C1C1C" font-family="sans-serif" font-size="14" font-weight="700" lengthAdjust="spacing" textLength="75.0586" x="190.7247" y="430.1467">Serialiser</text><line style="stroke:#181818;stroke-width:0.5;" x1="22.69" x2="401.3179" y1="441.3" y2="441.3"/><line style="stroke:#181818;stroke-width:0.5;" x1="22.69" x2="401.3179" y1="449.3" y2="449.3"/><g data-visibility-modifier="PUBLIC_METHOD"><ellipse cx="32.69" cy="462.9484" fill="#84BE84" rx="3" ry="3" style="stroke:#038048;stroke-width:1;"/></g><text fill="#000000" font-family="sans-serif" font-size="14" lengthAdjust="spacing" textLength="59.4111" x="41.69" y="466.2951">Serialise</text><text fill="#1F38B5" font-family="sans-serif" font-size="14" lengthAdjust="spacing" textLength="290.7666" x="105.5513" y="466.2951">(input any, groups []string) ([]byte, error)</text></g><!--class github_com_codemityio_go_pkg_json_ErrPkg--><g class="entity" data-qualified-name="github_com_codemityio_go_pkg_json.github_com_codemityio_go_pkg_json_ErrPkg" data-source-line="16" id="ent0005"><rect fill="#F1F1F1" height="48" rx="2.5" ry="2.5" style="stroke:#181818;stroke-width:0.5;" width="84.9648" x="756.52" y="417.44"/><ellipse cx="771.52" cy="433.44" fill="#EDB4AB" rx="11" ry="11" style="stroke:#181818;stroke-width:1;"/><path d="M771.6294,437.8931 L773.8169,427.5494 L776.2856,427.5494 L773.3325,439.94 L769.9419,439.94 L766.9888,427.5494 L769.4575,427.5494 L771.6294,437.8931 Z " fill="#000000"/><text fill="#1C1C1C" font-family="sans-serif" font-size="14" font-weight="700" lengthAdjust="spacing" textLength="52.9648" x="785.52" y="438.2867">ErrPkg</text><line style="stroke:#181818;stroke-width:0.5;" x1="757.52" x2="840.4848" y1="449.44" y2="449.44"/><line style="stroke:#181818;stroke-width:0.5;" x1="757.52" x2="840.4848" y1="457.44" y2="457.44"/></g><!--class github_com_codemityio_go_pkg_json_ErrJSON--><g class="entity" data-qualified-name="github_com_codemityio_go_pkg_json.github_com_codemityio_go_pkg_json_ErrJSON" data-source-line="17" id="ent0006"><rect fill="#F1F1F1" height="48" rx="2.5" ry="2.5" style="stroke:#181818;stroke-width:0.5;" width="94.2822" x="473.86" y="417.44"/><ellipse cx="488.86" cy="433.44" fill="#EDB4AB" rx="11" ry="11" style="stroke:#181818;stroke-width:1;"/><path d="M488.9694,437.8931 L491.1569,427.5494 L493.6256,427.5494 L490.6725,439.94 L487.2819,439.94 L484.3288,427.5494 L486.7975,427.5494 L488.9694,437.8931 Z " fill="#000000"/><text fill="#1C1C1C" font-family="sans-serif" font-size="14" font-weight="700" lengthAdjust="spacing" textLength="62.2822" x="502.86" y="438.2867">ErrJSON</text><line style="stroke:#181818;stroke-width:0.5;" x1="474.86" x2="567.1422" y1="449.44" y2="449.44"/><line style="stroke:#181818;stroke-width:0.5;" x1="474.86" x2="567.1422" y1="457.44" y2="457.44"/></g><!--class github_com_codemityio_go_pkg_json_ErrMarshal--><g class="entity" data-qualified-name="github_com_codemityio_go_pkg_json.github_com_codemityio_go_pkg_json_ErrMarshal" data-source-line="18" id="ent0007"><rect fill="#F1F1F1" height="48" rx="2.5" ry="2.5" style="stroke:#181818;stroke-width:0.5;" width="118.2012" x="602.9" y="417.44"/><ellipse cx="617.9" cy="433.44" fill="#EDB4AB" rx="11" ry="11" style="stroke:#181818;stroke-width:1;"/><path d="M618.0094,437.8931 L620.1969,427.5494 L622.6656,427.5494 L619.7125,439.94 L616.3219,439.94 L613.3688,427.5494 L615.8375,427.5494 L618.0094,437.8931 Z " fill="#000000"/><text fill="#1C1C1C" font-family="sans-serif" font-size="14" font-weight="700" lengthAdjust="spacing" textLength="86.2012" x="631.9" y="438.2867">ErrMarshal</text><line style="stroke:#181818;stroke-width:0.5;" x1="603.9" x2="720.1012" y1="449.44" y2="449.44"/><line style="stroke:#181818;stroke-width:0.5;" x1="603.9" x2="720.1012" y1="457.44" y2="457.44"/></g><!--class github_com_codemityio_go_pkg_json_MustBuildJSON--><g class="entity" data-qualified-name="github_com_codemityio_go_pkg_json.github_com_codemityio_go_pkg_json_MustBuildJSON" data-source-line="19" id="ent0008"><rect fill="#F1F1F1" height="48" rx="2.5" ry="2.5" style="stroke:#181818;stroke-width:0.5;" width="398.6816" x="714.66" y="610.89"/><ellipse cx="729.66" cy="626.89" fill="#DBCB8F" rx="11" ry="11" style="stroke:#181818;stroke-width:1;"/><path d="M733.8944,622.6556 L728.6131,622.6556 L728.6131,625.3275 L733.41,625.3275 L733.41,627.4838 L728.6131,627.4838 L728.6131,632.89 L726.1756,632.89 L726.1756,620.4994 L733.8944,620.4994 L733.8944,622.6556 Z " fill="#000000"/><text fill="#1C1C1C" font-family="sans-serif" font-size="14" font-weight="700" lengthAdjust="spacing" textLength="118.0908" x="743.66" y="631.7367">MustBuildJSON</text><text fill="#1F38B5" font-family="sans-serif" font-size="14" lengthAdjust="spacing" textLength="202.0225" x="861.7508" y="631.7367">(data json.RawMessage) (*T)</text><rect fill="#FFFFFF" height="15.9688" style="stroke:#181818;stroke-width:1;stroke-dasharray:2,2;" width="44.5684" x="1071.7733" y="607.89"/><text fill="#000000" font-family="sans-serif" font-size="12" font-style="italic" lengthAdjust="spacing" textLength="42.5684" x="1072.7733" y="620.0287">[T any]</text><line style="stroke:#181818;stroke-width:0.5;" x1="715.66" x2="1112.3416" y1="642.89" y2="642.89"/><line style="stroke:#181818;stroke-width:0.5;" x1="715.66" x2="1112.3416" y1="650.89" y2="650.89"/></g><!--class github_com_codemityio_go_pkg_json_NewJSON--><g class="entity" data-qualified-name="github_com_codemityio_go_pkg_json.github_com_codemityio_go_pkg_json_NewJSON" data-source-line="20" id="ent0009"><rect fill="#F1F1F1" height="48" rx="2.5" ry="2.5" style="stroke:#181818;stroke-width:0.5;" width="396.9932" x="282.5" y="610.89"/><ellipse cx="297.5" cy="626.89" fill="#DBCB8F" rx="11" ry="11" style="stroke:#181818;stroke-width:1;"/><path d="M301.7344,622.6556 L296.4531,622.6556 L296.4531,625.3275 L301.25,625.3275 L301.25,627.4838 L296.4531,627.4838 L296.4531,632.89 L294.0156,632.89 L294.0156,620.4994 L301.7344,620.4994 L301.7344,622.6556 Z " fill="#000000"/><text fill="#1C1C1C" font-family="sans-serif" font-size="14" font-weight="700" lengthAdjust="spacing" textLength="73.0557" x="311.5" y="631.7367">NewJSON</text><text fill="#1F38B5" font-family="sans-serif" font-size="14" lengthAdjust="spacing" textLength="245.3691" x="384.5557" y="631.7367">(data json.RawMessage) (*T, error)</text><rect fill="#FFFFFF" height="15.9688" style="stroke:#181818;stroke-width:1;stroke-dasharray:2,2;" width="44.5684" x="637.9248" y="607.89"/><text fill="#000000" font-family="sans-serif" font-size="12" font-style="italic" lengthAdjust="spacing" textLength="42.5684" x="638.9248" y="620.0287">[T any]</text><line style="stroke:#181818;stroke-width:0.5;" x1="283.5" x2="678.4932" y1="642.89" y2="642.89"/><line style="stroke:#181818;stroke-width:0.5;" x1="283.5" x2="678.4932" y1="650.89" y2="650.89"/></g><!--class github_com_codemityio_go_pkg_json_NewRawMessageSequenceMap--><g class="entity" data-qualified-name="github_com_codemityio_go_pkg_json.github_com_codemityio_go_pkg_json_NewRawMessageSequenceMap" data-source-line="21" id="ent0010"><rect fill="#F1F1F1" height="48" rx="2.5" ry="2.5" style="stroke:#181818;stroke-width:0.5;" width="759.3916" x="474.3" y="962.89"/><ellipse cx="489.3" cy="978.89" fill="#DBCB8F" rx="11" ry="11" style="stroke:#181818;stroke-width:1;"/><path d="M493.5344,974.6556 L488.2531,974.6556 L488.2531,977.3275 L493.05,977.3275 L493.05,979.4838 L488.2531,979.4838 L488.2531,984.89 L485.8156,984.89 L485.8156,972.4994 L493.5344,972.4994 L493.5344,974.6556 Z " fill="#000000"/><text fill="#1C1C1C" font-family="sans-serif" font-size="14" font-weight="700" lengthAdjust="spacing" textLength="246.5859" x="503.3" y="983.7367">NewRawMessageSequenceMap</text><text fill="#1F38B5" font-family="sans-serif" font-size="14" lengthAdjust="spacing" textLength="480.8057" x="749.8859" y="983.7367">(input map[string][]json.RawMessage) (*RawMessageSequenceMap)</text><line style="stroke:#181818;stroke-width:0.5;" x1="475.3" x2="1232.6916" y1="994.89" y2="994.89"/><line style="stroke:#181818;stroke-width:0.5;" x1="475.3" x2="1232.6916" y1="1002.89" y2="1002.89"/></g><!--class github_com_codemityio_go_pkg_json_NewSerialiser--><g class="entity" data-qualified-name="github_com_codemityio_go_pkg_json.github_com_codemityio_go_pkg_json_NewSerialiser" data-source-line="22" id="ent0011"><rect fill="#F1F1F1" height="48" rx="2.5" ry="2.5" style="stroke:#181818;stroke-width:0.5;" width="239.6689" x="92.17" y="962.89"/><ellipse cx="107.17" cy="978.89" fill="#DBCB8F" rx="11" ry="11" style="stroke:#181818;stroke-width:1;"/><path d="M111.4044,974.6556 L106.1231,974.6556 L106.1231,977.3275 L110.92,977.3275 L110.92,979.4838 L106.1231,979.4838 L106.1231,984.89 L103.6856,984.89 L103.6856,972.4994 L111.4044,972.4994 L111.4044,974.6556 Z " fill="#000000"/><text fill="#1C1C1C" font-family="sans-serif" font-size="14" font-weight="700" lengthAdjust="spacing" textLength="109.2041" x="121.17" y="983.7367">NewSerialiser</text><text fill="#1F38B5" font-family="sans-serif" font-size="14" lengthAdjust="spacing" textLength="98.4648" x="230.3741" y="983.7367">() (*Serialiser)</text><line style="stroke:#181818;stroke-width:0.5;" x1="93.17" x2="330.8389" y1="994.89" y2="994.89"/><line style="stroke:#181818;stroke-width:0.5;" x1="93.17" x2="330.8389" y1="1002.89" y2="1002.89"/></g><!--class _struct--><g class="entity" data-qualified-name="github_com_codemityio_go_pkg_json._struct" data-source-line="25" id="ent0012"><rect fill="#F1F1F1" height="48" rx="2.5" ry="2.5" style="stroke:#181818;stroke-width:0.5;" width="72.5986" x="481.7" y="41"/><ellipse cx="496.7" cy="57" fill="#B5558D" rx="11" ry="11" style="stroke:#181818;stroke-width:1;"/><path d="M496.1844,57.5625 Q494.325,56.8594 493.6688,56.0938 Q493.0281,55.3125 493.0281,54 Q493.0281,52.3125 494.1063,51.3438 Q495.1844,50.375 497.0594,50.375 Q497.9188,50.375 498.7625,50.5781 Q499.6219,50.7656 500.4656,51.1563 L500.4656,53.5469 Q499.6844,52.9844 498.8563,52.7031 Q498.0438,52.4063 497.2469,52.4063 Q496.3719,52.4063 495.8875,52.7656 Q495.4188,53.125 495.4188,53.7813 Q495.4188,54.2969 495.7625,54.6406 Q496.1063,54.9688 497.2,55.375 L498.2625,55.7813 Q499.7469,56.3281 500.45,57.2344 Q501.1688,58.1406 501.1688,59.5156 Q501.1688,61.3906 500.0594,62.3125 Q498.95,63.2344 496.7,63.2344 Q495.7781,63.2344 494.8563,63.0156 Q493.9344,62.7969 493.075,62.375 L493.075,59.8438 Q494.0438,60.5313 494.9656,60.875 Q495.8875,61.2188 496.7781,61.2188 Q497.6844,61.2188 498.1844,60.8125 Q498.6844,60.3906 498.6844,59.6563 Q498.6844,59.0938 498.3406,58.6875 Q498.0125,58.2656 497.3875,58.0156 L496.1844,57.5625 Z " fill="#000000"/><text fill="#000000" font-family="sans-serif" font-size="14" lengthAdjust="spacing" textLength="40.5986" x="510.7" y="61.8467">struct</text><line style="stroke:#181818;stroke-width:0.5;" x1="482.7" x2="553.2986" y1="73" y2="73"/><line style="stroke:#181818;stroke-width:0.5;" x1="482.7" x2="553.2986" y1="81" y2="81"/></g><!--class _any--><g class="entity" data-qualified-name="github_com_codemityio_go_pkg_json._any" data-source-line="33" id="ent0015"><rect fill="#F1F1F1" height="48" rx="2.5" ry="2.5" style="stroke:#181818;stroke-width:0.5;" width="57.7373" x="183.13" y="41"/><ellipse cx="198.13" cy="57" fill="#6D8CBF" rx="11" ry="11" style="stroke:#181818;stroke-width:1;"/><path d="M198.9738,63.75 L196.5206,63.75 L196.5206,53.5 L193.38,53.5 L193.38,51.3594 L202.1144,51.3594 L202.1144,53.5 L198.9738,53.5 L198.9738,63.75 Z " fill="#000000"/><text fill="#000000" font-family="sans-serif" font-size="14" lengthAdjust="spacing" textLength="25.7373" x="212.13" y="61.8467">any</text><line style="stroke:#181818;stroke-width:0.5;" x1="184.13" x2="239.8673" y1="73" y2="73"/><line style="stroke:#181818;stroke-width:0.5;" x1="184.13" x2="239.8673" y1="81" y2="81"/></g><!--class _error--><g class="entity" data-qualified-name="github_com_codemityio_go_pkg_json._error" data-source-line="34" id="ent0016"><rect fill="#F1F1F1" height="48" rx="2.5" ry="2.5" style="stroke:#181818;stroke-width:0.5;" width="66.4463" x="349.78" y="41"/><ellipse cx="364.78" cy="57" fill="#E4F58E" rx="11" ry="11" style="stroke:#181818;stroke-width:1;"/><path d="M360.7019,52.7656 L360.7019,50.6094 L368.0925,50.6094 L368.0925,52.7656 L365.6238,52.7656 L365.6238,60.8438 L368.0925,60.8438 L368.0925,63 L360.7019,63 L360.7019,60.8438 L363.1706,60.8438 L363.1706,52.7656 L360.7019,52.7656 Z " fill="#000000"/><text fill="#000000" font-family="sans-serif" font-size="14" lengthAdjust="spacing" textLength="34.4463" x="378.78" y="61.8467">error</text><line style="stroke:#181818;stroke-width:0.5;" x1="350.78" x2="415.2263" y1="73" y2="73"/><line style="stroke:#181818;stroke-width:0.5;" x1="350.78" x2="415.2263" y1="81" y2="81"/></g><!--class error--><g class="entity" data-qualified-name="github_com_codemityio_go_pkg_json.error" data-source-line="35" id="ent0017"><rect fill="#F1F1F1" height="48" rx="2.5" ry="2.5" style="stroke:#181818;stroke-width:0.5;" width="66.4463" x="628.78" y="41"/><ellipse cx="643.78" cy="57" fill="#E4F58E" rx="11" ry="11" style="stroke:#181818;stroke-width:1;"/><path d="M639.7019,52.7656 L639.7019,50.6094 L647.0925,50.6094 L647.0925,52.7656 L644.6238,52.7656 L644.6238,60.8438 L647.0925,60.8438 L647.0925,63 L639.7019,63 L639.7019,60.8438 L642.1706,60.8438 L642.1706,52.7656 L639.7019,52.7656 Z " fill="#000000"/><text fill="#000000" font-family="sans-serif" font-size="14" lengthAdjust="spacing" textLength="34.4463" x="657.78" y="61.8467">error</text><line style="stroke:#181818;stroke-width:0.5;" x1="629.78" x2="694.2263" y1="73" y2="73"/><line style="stroke:#181818;stroke-width:0.5;" x1="629.78" x2="694.2263" y1="81" y2="81"/></g><!--class github_com_codemityio_go_pkg_json_T--><g class="entity" data-qualified-name="github_com_codemityio_go_pkg_json.github_com_codemityio_go_pkg_json_T" data-source-line="41" id="ent0018"><rect fill="#F1F1F1" height="48" rx="2.5" ry="2.5" style="stroke:#181818;stroke-width:0.5;" width="40.5518" x="874.72" y="41"/><ellipse cx="889.72" cy="57" fill="#6D8CBF" rx="11" ry="11" style="stroke:#181818;stroke-width:1;"/><path d="M890.5638,63.75 L888.1106,63.75 L888.1106,53.5 L884.97,53.5 L884.97,51.3594 L893.7044,51.3594 L893.7044,53.5 L890.5638,53.5 L890.5638,63.75 Z " fill="#000000"/><text fill="#000000" font-family="sans-serif" font-size="14" lengthAdjust="spacing" textLength="8.5518" x="903.72" y="61.8467">T</text><line style="stroke:#181818;stroke-width:0.5;" x1="875.72" x2="914.2718" y1="73" y2="73"/><line style="stroke:#181818;stroke-width:0.5;" x1="875.72" x2="914.2718" y1="81" y2="81"/></g><!--class encoding_json_RawMessage--><g class="entity" data-qualified-name="encoding_json.encoding_json_RawMessage" data-source-line="27" id="ent0014"><rect fill="#F1F1F1" height="48" rx="2.5" ry="2.5" style="stroke:#181818;stroke-width:0.5;" width="123.1162" x="1290.44" y="41"/><ellipse cx="1305.44" cy="57" fill="#739E78" rx="11" ry="11" style="stroke:#181818;stroke-width:1;"/><path d="M1306.2838,63.75 L1303.8306,63.75 L1303.8306,53.5 L1300.69,53.5 L1300.69,51.3594 L1309.4244,51.3594 L1309.4244,53.5 L1306.2838,53.5 L1306.2838,63.75 Z " fill="#000000"/><text fill="#000000" font-family="sans-serif" font-size="14" lengthAdjust="spacing" textLength="91.1162" x="1319.44" y="61.8467">RawMessage</text><line style="stroke:#181818;stroke-width:0.5;" x1="1291.44" x2="1412.5562" y1="73" y2="73"/><line style="stroke:#181818;stroke-width:0.5;" x1="1291.44" x2="1412.5562" y1="81" y2="81"/></g><!--link _struct to github_com_codemityio_go_pkg_json_RawMessageSequenceMap--><g class="link" data-entity-1="ent0012" data-entity-2="ent0003" data-link-type="dependency" data-source-line="52" id="lnk20"><path codeLine="52" d="M559.8666,88.7309 C576.7866,97.5809 591.99,105 611,113 C733.93,164.76 895,76.62 895,210 C895,210 895,210 895,272 C895,325.1 932.5956,362.4295 977.7156,390.0495" fill="none" id="_struct-github_com_codemityio_go_pkg_json_RawMessageSequenceMap" style="stroke:#181818;stroke-width:1;stroke-dasharray:7,7;"/><polygon fill="#181818" points="554.55,85.95,560.6711,93.6657,558.9805,88.2674,564.3789,86.5769,554.55,85.95" style="stroke:#181818;stroke-width:1;"/><rect fill="#FFFFFF" height="10" style="stroke:#181818;stroke-width:1.5;" width="10" x="976.98" y="387.66"/></g><!--link encoding_json_RawMessage to github_com_codemityio_go_pkg_json_RawMessageSequenceMap--><g class="link" data-entity-1="ent0014" data-entity-2="ent0003" data-link-type="aggregation" data-source-line="53" id="lnk22"><path codeLine="53" d="M1288.7301,91.9298 C1207.0401,129.5498 1074.5,197.97 1074.5,210 C1074.5,210 1074.5,210 1074.5,272 C1074.5,312.65 1073.5064,346.8612 1076.3064,380.5612" fill="none" id="encoding_json_RawMessage-github_com_codemityio_go_pkg_json_RawMessageSequenceMap" style="stroke:#181818;stroke-width:1;"/><polygon fill="#181818" points="1294.18,89.42,1284.332,89.5514,1289.6384,91.5115,1287.6784,96.8179,1294.18,89.42" style="stroke:#181818;stroke-width:1;"/><polygon fill="none" points="1077.3,392.52,1080.7895,386.2094,1076.3064,380.5612,1072.8169,386.8718,1077.3,392.52" style="stroke:#181818;stroke-width:1;"/></g><!--reverse link encoding_json_RawMessage to github_com_codemityio_go_pkg_json_RawMessageSequenceMap--><g class="link" data-entity-1="ent0014" data-entity-2="ent0003" data-link-type="dependency" data-source-line="54" id="lnk24"><path codeLine="54" d="M1310.397,92.3193 C1242.237,129.9393 1109.5,197.97 1109.5,210 C1109.5,210 1109.5,210 1109.5,272 C1109.5,312.65 1109.5,358.82 1106.7,392.52" fill="none" id="encoding_json_RawMessage-backto-github_com_codemityio_go_pkg_json_RawMessageSequenceMap" style="stroke:#181818;stroke-width:1;stroke-dasharray:7,7;"/><polygon fill="#181818" points="1315.65,89.42,1305.8376,90.267,1311.2725,91.8361,1309.7034,97.271,1315.65,89.42" style="stroke:#181818;stroke-width:1;"/></g><!--link _struct to github_com_codemityio_go_pkg_json_Serialiser--><g class="link" data-entity-1="ent0012" data-entity-2="ent0004" data-link-type="dependency" data-source-line="55" id="lnk26"><path codeLine="55" d="M505.2669,94.9686 C493.7169,123.0386 479,166.23 479,210 C479,210 479,210 479,272 C479,342.15 416.942,382.5322 350.192,407.1122" fill="none" id="_struct-github_com_codemityio_go_pkg_json_Serialiser" style="stroke:#181818;stroke-width:1;stroke-dasharray:7,7;"/><polygon fill="#181818" points="507.55,89.42,500.4262,96.2209,505.6474,94.0439,507.8244,99.265,507.55,89.42" style="stroke:#181818;stroke-width:1;"/><rect fill="#FFFFFF" height="10" style="stroke:#181818;stroke-width:1.5;" width="10" x="340.5" y="403.84"/></g><!--reverse link _any to github_com_codemityio_go_pkg_json_Serialiser--><g class="link" data-entity-1="ent0015" data-entity-2="ent0004" data-link-type="dependency" data-source-line="56" id="lnk28"><path codeLine="56" d="M212,95.44 C212,123.94 212,167.5 212,210 C212,210 212,210 212,272 C212,319.81 212,375.26 212,409.09" fill="none" id="_any-backto-github_com_codemityio_go_pkg_json_Serialiser" style="stroke:#181818;stroke-width:1;stroke-dasharray:7,7;"/><polygon fill="#181818" points="212,89.44,208,98.44,212,94.44,216,98.44,212,89.44" style="stroke:#181818;stroke-width:1;"/></g><!--reverse link _error to github_com_codemityio_go_pkg_json_Serialiser--><g class="link" data-entity-1="ent0016" data-entity-2="ent0004" data-link-type="dependency" data-source-line="57" id="lnk30"><path codeLine="57" d="M353.6661,93.6903 C327.9661,120.2303 296,161.81 296,210 C296,210 296,210 296,272 C296,324.12 263.39,376.68 238.81,408.9" fill="none" id="_error-backto-github_com_codemityio_go_pkg_json_Serialiser" style="stroke:#181818;stroke-width:1;stroke-dasharray:7,7;"/><polygon fill="#181818" points="357.84,89.38,348.7056,93.0629,354.3618,92.9719,354.4527,98.628,357.84,89.38" style="stroke:#181818;stroke-width:1;"/></g><!--reverse link error to github_com_codemityio_go_pkg_json_ErrPkg--><g class="link" data-entity-1="ent0017" data-entity-2="ent0005" data-link-type="extension" data-source-line="58" id="lnk32"><path codeLine="58" d="M699.6816,102.3109 C725.3816,128.8509 749,161.81 749,210 C749,210 749,210 749,272 C749,325.69 772.63,385.17 787.4,417.11" fill="none" id="error-backto-github_com_codemityio_go_pkg_json_ErrPkg" style="stroke:#181818;stroke-width:1;stroke-dasharray:7,7;"/><polygon fill="none" points="687.16,89.38,695.3713,106.4848,703.9919,98.137,687.16,89.38" style="stroke:#181818;stroke-width:1;"/></g><!--reverse link error to github_com_codemityio_go_pkg_json_ErrJSON--><g class="link" data-entity-1="ent0017" data-entity-2="ent0006" data-link-type="extension" data-source-line="59" id="lnk34"><path codeLine="59" d="M623.5659,102.0317 C597.2759,128.4617 573,161.51 573,210 C573,210 573,210 573,272 C573,325.87 548.42,385.28 533.06,417.16" fill="none" id="error-backto-github_com_codemityio_go_pkg_json_ErrJSON" style="stroke:#181818;stroke-width:1;stroke-dasharray:7,7;"/><polygon fill="none" points="636.26,89.27,619.312,97.8003,627.8198,106.263,636.26,89.27" style="stroke:#181818;stroke-width:1;"/></g><!--reverse link error to github_com_codemityio_go_pkg_json_ErrMarshal--><g class="link" data-entity-1="ent0017" data-entity-2="ent0007" data-link-type="extension" data-source-line="60" id="lnk36"><path codeLine="60" d="M662,107.44 C662,135.94 662,167.5 662,210 C662,210 662,210 662,272 C662,323.76 662,384.47 662,417.01" fill="none" id="error-backto-github_com_codemityio_go_pkg_json_ErrMarshal" style="stroke:#181818;stroke-width:1;stroke-dasharray:7,7;"/><polygon fill="none" points="662,89.44,656,107.44,668,107.44,662,89.44" style="stroke:#181818;stroke-width:1;"/></g><!--reverse link encoding_json_RawMessage to github_com_codemityio_go_pkg_json_MustBuildJSON--><g class="link" data-entity-1="ent0014" data-entity-2="ent0008" data-link-type="dependency" data-source-line="61" id="lnk38"><path codeLine="61" d="M1353.952,95.4185 C1355.722,123.9085 1358,167.46 1358,210 C1358,210 1358,210 1358,442.44 C1358,494.63 1353.2,517.62 1313,550.89 C1281.11,577.28 1195.03,596.88 1110.95,610.39" fill="none" id="encoding_json_RawMessage-backto-github_com_codemityio_go_pkg_json_MustBuildJSON" style="stroke:#181818;stroke-width:1;stroke-dasharray:7,7;"/><polygon fill="#181818" points="1353.58,89.43,1350.1458,98.6607,1353.89,94.4204,1358.1304,98.1647,1353.58,89.43" style="stroke:#181818;stroke-width:1;"/></g><!--reverse link github_com_codemityio_go_pkg_json_T to github_com_codemityio_go_pkg_json_MustBuildJSON--><g class="link" data-entity-1="ent0018" data-entity-2="ent0008" data-link-type="dependency" data-source-line="62" id="lnk40"><path codeLine="62" d="M907.0989,95.0604 C918.0589,123.1804 932,166.38 932,210 C932,210 932,210 932,272 C932,400.01 920.63,553.18 915.96,610.62" fill="none" id="github_com_codemityio_go_pkg_json_T-backto-github_com_codemityio_go_pkg_json_MustBuildJSON" style="stroke:#181818;stroke-width:1;stroke-dasharray:7,7;"/><polygon fill="#181818" points="904.92,89.47,904.4614,99.3082,906.7357,94.1287,911.9153,96.403,904.92,89.47" style="stroke:#181818;stroke-width:1;"/></g><!--reverse link encoding_json_RawMessage to github_com_codemityio_go_pkg_json_NewJSON--><g class="link" data-entity-1="ent0014" data-entity-2="ent0009" data-link-type="dependency" data-source-line="63" id="lnk42"><path codeLine="63" d="M1330.7815,93.913 C1311.5315,121.203 1287,163.92 1287,210 C1287,210 1287,210 1287,442.44 C1287,468.91 1273.52,475.98 1251,489.89 C1199.69,521.58 849.83,578.49 639.76,610.45" fill="none" id="encoding_json_RawMessage-backto-github_com_codemityio_go_pkg_json_NewJSON" style="stroke:#181818;stroke-width:1;stroke-dasharray:7,7;"/><polygon fill="#181818" points="1334.24,89.01,1325.7837,94.0588,1331.3579,93.0958,1332.3209,98.6701,1334.24,89.01" style="stroke:#181818;stroke-width:1;"/></g><!--reverse link github_com_codemityio_go_pkg_json_T to github_com_codemityio_go_pkg_json_NewJSON--><g class="link" data-entity-1="ent0018" data-entity-2="ent0009" data-link-type="dependency" data-source-line="64" id="lnk44"><path codeLine="64" d="M882.9011,95.0604 C871.9411,123.1804 858,166.38 858,210 C858,210 858,210 858,272 C858,368.84 913.95,410.15 859,489.89 C813.97,555.23 735.04,590.95 660.92,610.46" fill="none" id="github_com_codemityio_go_pkg_json_T-backto-github_com_codemityio_go_pkg_json_NewJSON" style="stroke:#181818;stroke-width:1;stroke-dasharray:7,7;"/><polygon fill="#181818" points="885.08,89.47,878.0847,96.403,883.2643,94.1287,885.5386,99.3082,885.08,89.47" style="stroke:#181818;stroke-width:1;"/></g><!--reverse link _error to github_com_codemityio_go_pkg_json_NewJSON--><g class="link" data-entity-1="ent0016" data-entity-2="ent0009" data-link-type="dependency" data-source-line="65" id="lnk46"><path codeLine="65" d="M401.0734,94.5808 C417.3534,122.2408 438,165.04 438,210 C438,210 438,210 438,442.44 C438,504.27 459.61,574.66 472.19,610.39" fill="none" id="_error-backto-github_com_codemityio_go_pkg_json_NewJSON" style="stroke:#181818;stroke-width:1;stroke-dasharray:7,7;"/><polygon fill="#181818" points="398.03,89.41,399.1479,99.1952,400.5662,93.719,406.0424,95.1373,398.03,89.41" style="stroke:#181818;stroke-width:1;"/></g><!--reverse link encoding_json_RawMessage to github_com_codemityio_go_pkg_json_NewRawMessageSequenceMap--><g class="link" data-entity-1="ent0014" data-entity-2="ent0010" data-link-type="dependency" data-source-line="66" id="lnk48"><path codeLine="66" d="M1377.733,94.0126 C1400.493,120.9426 1429,162.94 1429,210 C1429,210 1429,210 1429,841.89 C1429,906.79 1289.43,942.69 1147.82,962.42" fill="none" id="encoding_json_RawMessage-backto-github_com_codemityio_go_pkg_json_NewRawMessageSequenceMap" style="stroke:#181818;stroke-width:1;stroke-dasharray:7,7;"/><polygon fill="#181818" points="1373.86,89.43,1376.6144,98.8859,1377.0875,93.2488,1382.7245,93.7219,1373.86,89.43" style="stroke:#181818;stroke-width:1;"/></g><!--reverse link github_com_codemityio_go_pkg_json_RawMessageSequenceMap to github_com_codemityio_go_pkg_json_NewRawMessageSequenceMap--><g class="link" data-entity-1="ent0003" data-entity-2="ent0010" data-link-type="dependency" data-source-line="67" id="lnk50"><path codeLine="67" d="M1116.8471,495.5945 C1132.7771,533.6445 1149,583.26 1149,633.89 C1149,633.89 1149,633.89 1149,841.89 C1149,907.29 1089.73,942.99 1024.32,962.48" fill="none" id="github_com_codemityio_go_pkg_json_RawMessageSequenceMap-backto-github_com_codemityio_go_pkg_json_NewRawMessageSequenceMap" style="stroke:#181818;stroke-width:1;stroke-dasharray:7,7;"/><polygon fill="#181818" points="1114.53,490.06,1114.3159,499.9065,1116.4609,494.6721,1121.6953,496.8171,1114.53,490.06" style="stroke:#181818;stroke-width:1;"/></g><!--reverse link github_com_codemityio_go_pkg_json_Serialiser to github_com_codemityio_go_pkg_json_NewSerialiser--><g class="link" data-entity-1="ent0004" data-entity-2="ent0011" data-link-type="dependency" data-source-line="68" id="lnk52"><path codeLine="68" d="M212,479.95 C212,517.89 212,577.55 212,633.89 C212,633.89 212,633.89 212,841.89 C212,884.39 212,933.95 212,962.44" fill="none" id="github_com_codemityio_go_pkg_json_Serialiser-backto-github_com_codemityio_go_pkg_json_NewSerialiser" style="stroke:#181818;stroke-width:1;stroke-dasharray:7,7;"/><polygon fill="#181818" points="212,473.95,208,482.95,212,478.95,216,482.95,212,473.95" style="stroke:#181818;stroke-width:1;"/></g><?plantuml-src tLPTYzf057ttLrpqHRiQARjsBQI1RccX1MsfqXUHC4acsTIOIMScx4hhV-zCFaoqKVEniaiJ257kEUUUkNTkXfC0E063S4xMOBaKczmbVekjN3z05AqXGEOAEHX-jq1ST-ANGqdeMn-8HoXqR2JlrZQ7iB2DGezp_CYHvph-6liSJF70D1Vb4uxd8kJzBiJ3Dc-bSct7vVUXePXaFJI9XTSktxXaw91Xi7A6Fndnsu0On56wYDApADqXkeZIPLIIj-aXng2j6ffg4vcEpFvTvxKfR-qxUfXWneJk3FyAiM_Y2GhKeOpKrA6XbPFI2sb0LQ4xwqF768r6Owi7cfRa9Ay1M8WZs4_AlXuR8ssDWWNZrFMTvM8f-PMCFyajHsE6b8bwd25oVNu8lOAfg48XiBl26uYHFUWUfD3B4srBBF8CKrVq0yEq-ifcsDFBUGMxo697elj23iZVz46sSS1WiTmvN2oD3STzm9GIMjdVHqg_hPpgtc9SvEk7y8KjumOPiQ-IibzcNwUrT2MmYV04KNQFl5hQ2RQs_2Ha_2vqFUl0VM7PeqrssC3GVJLFgwmkvh8hbcKDxAb77Zu93vPX6cExl8SfVcYK_K6hLZMHo3T9_zpaFB49JyqtwQwGEhLQtk7neLpJSk4SA_GfNMJHrLC_c7h_vhkzyETIb2SqUOJKu_V2yHilt2uLiSR44cNDP9Nqhxn6JYUhKHI-5vtxgaRYekaxjzTlyUquB_vYKgYpSWb6RDqO85vsEc-iiMaKDMYqy-Fuw3L2V9Q3zCOUZV59nFC3NawbvYNtu_n4IVulDzKRx9dzNsmCrZtoTnH52GFnqDBTtuYE30Q3C10FxUZwDEBFicr8d_jWrLw274UEGep4HlYeWqio90Vo5Fr7Wuhew51L7vwUZ6iox1zDbPIbUNMF4vUODoKrqYFf4wPTH7dPX2jrsz4ZwjCkmNcDcjEZV0hxExE2RWPiRVy2?></g></svg>